<?xml version="1.0" encoding="UTF-8" standalone="no"?>
<!DOCTYPE svg PUBLIC "-//W3C//DTD SVG 1.1//EN"
 "http://www.w3.org/Graphics/SVG/1.1/DTD/svg11.dtd">
<!-- Generated by graphviz version 2.28.0 (20110509.1543)
 -->
<!-- Title: G Pages: 1 -->
<svg width="160pt" height="259pt"
 viewBox="0.00 0.00 160.00 259.00" xmlns="http://www.w3.org/2000/svg" xmlns:xlink="http://www.w3.org/1999/xlink">
<g id="graph1" class="graph" transform="scale(1 1) rotate(0) translate(4 255)">
<title>G</title>
<polygon fill="white" stroke="white" points="-4,5 -4,-255 157,-255 157,5 -4,5"/>
<g id="graph2" class="cluster"><title>cluster_Global</title>
<polyline fill="none" stroke="gray" points="20,-8 132,-8 "/>
<path fill="none" stroke="gray" d="M132,-8C138,-8 144,-14 144,-20"/>
<polyline fill="none" stroke="gray" points="144,-20 144,-231 "/>
<path fill="none" stroke="gray" d="M144,-231C144,-237 138,-243 132,-243"/>
<polyline fill="none" stroke="gray" points="132,-243 20,-243 "/>
<path fill="none" stroke="gray" d="M20,-243C14,-243 8,-237 8,-231"/>
<polyline fill="none" stroke="gray" points="8,-231 8,-20 "/>
<path fill="none" stroke="gray" d="M8,-20C8,-14 14,-8 20,-8"/>
<text text-anchor="middle" x="76" y="-229.1" font-family="Times,serif" font-size="11.00" fill="gray">Global</text>
</g>
<!-- \\FileCache -->
<g id="node2" class="node"><title>\\FileCache</title>
<polygon fill="none" stroke="black" points="106.098,-214 45.9025,-214 45.9025,-178 106.098,-178 106.098,-214"/>
<text text-anchor="middle" x="76" y="-192.7" font-family="Times,serif" font-size="11.00">FileCache</text>
</g>
<!-- \\HealthLibraryRequest -->
<g id="node3" class="node"><title>\\HealthLibraryRequest</title>
<polygon fill="none" stroke="black" points="132.741,-160 19.2592,-160 19.2592,-124 132.741,-124 132.741,-160"/>
<text text-anchor="middle" x="76" y="-138.7" font-family="Times,serif" font-size="11.00">HealthLibraryRequest</text>
</g>
<!-- \\HealthLibraryResponse -->
<g id="node4" class="node"><title>\\HealthLibraryResponse</title>
<polygon fill="none" stroke="black" points="136.462,-106 15.5376,-106 15.5376,-70 136.462,-70 136.462,-106"/>
<text text-anchor="middle" x="76" y="-84.7" font-family="Times,serif" font-size="11.00">HealthLibraryResponse</text>
</g>
<!-- \\Library -->
<g id="node5" class="node"><title>\\Library</title>
<polygon fill="none" stroke="black" points="103,-52 49,-52 49,-16 103,-16 103,-52"/>
<text text-anchor="middle" x="76" y="-30.7" font-family="Times,serif" font-size="11.00">Library</text>
</g>
</g>
</svg>
